<svg width="210" height="40" viewBox="0 0 210 40" fill="none" xmlns="http://www.w3.org/2000/svg">
<g clip-path="url(#clip0_2625_2506)">
<path d="M21.1481 31.5908C21.1481 33.1076 21.846 34.2884 22.791 35.4164C23.9976 36.8564 23.6681 38.8772 22.1609 39.842C20.6393 40.8164 18.6572 40.3556 17.7267 38.8052C17.1016 37.7588 17.1306 36.386 18.0708 35.3876C20.0771 33.2468 20.0093 30.8756 18.9237 28.4564C17.4602 25.1924 15.0662 22.7636 11.6981 21.3764C9.33803 20.4068 7.14272 20.5508 5.13641 22.3412C3.67772 23.642 1.58418 23.3684 0.566488 21.8948C-0.51905 20.3252 -0.0538196 18.4532 1.6908 17.5076C2.73757 16.9412 3.78918 17.0612 4.75841 17.6996C8.4851 20.1428 10.8355 20.0996 14.3926 17.4644C16.3068 16.0436 17.8479 14.2964 18.8316 12.1172C19.9608 9.60684 20.1207 7.21164 18.0805 4.97004C16.9853 3.77004 17.0676 2.23404 18.0514 1.09644C19.0836 -0.0939565 20.6296 -0.343556 22.0301 0.453244C23.5857 1.33644 24.0946 3.45804 22.8685 4.80684C20.5375 7.37004 20.867 10.0436 22.3403 12.7604C23.9443 15.7124 26.2753 17.9396 29.5126 19.106C31.7515 19.9172 33.7966 19.658 35.6623 18.05C37.2325 16.6964 39.2873 16.9508 40.305 18.4964C41.1579 19.7972 40.9883 21.3428 39.8785 22.3556C38.7639 23.3732 37.0435 23.6036 35.9676 22.5284C33.4137 19.97 29.9293 20.5604 27.1622 22.4036C24.2545 24.3428 22.0834 26.8532 21.3226 30.3524C21.2353 30.7604 21.2014 31.1828 21.1433 31.5956L21.1481 31.5908Z" fill="black"/>
<path d="M31.4913 28.2698C33.1439 28.2458 34.6074 29.657 34.6317 31.2986C34.6559 32.9402 33.236 34.385 31.5786 34.3994C29.9115 34.4186 28.4819 33.0458 28.4383 31.3802C28.3995 29.753 29.834 28.2938 31.4913 28.2698Z" fill="black"/>
<path d="M12.3001 31.3455C12.2856 33.0111 10.8705 34.4031 9.19856 34.3935C7.51695 34.3839 6.13579 32.9919 6.14064 31.3215C6.14548 29.6607 7.56056 28.2639 9.22764 28.2735C10.8947 28.2783 12.3146 29.6991 12.3001 31.3455Z" fill="black"/>
<path d="M31.5498 12.1733C29.8488 12.1637 28.4483 10.7813 28.4531 9.12528C28.4628 7.45008 29.8585 6.07248 31.5401 6.08208C33.2169 6.09168 34.6611 7.50288 34.6465 9.12048C34.632 10.7813 33.2121 12.1829 31.5498 12.1733Z" fill="black"/>
<path d="M12.2914 9.09263C12.3108 10.763 10.8909 12.1838 9.21411 12.1694C7.52764 12.155 6.18526 10.8686 6.14164 9.21743C6.09803 7.54223 7.4598 6.12143 9.15595 6.08303C10.8521 6.03983 12.2769 7.40783 12.2914 9.09263Z" fill="black"/>
<path d="M193.264 19.1574C193.555 17.1702 192.309 15.639 190.182 15.4278C189.421 15.351 188.631 15.4182 187.865 15.5142C186.925 15.6342 186.193 16.1478 185.699 16.959C185.534 17.2326 185.331 17.391 185.001 17.391C183.906 17.391 182.811 17.4006 181.715 17.4054C181.648 17.4054 181.585 17.391 181.522 17.3814C181.434 15.591 182.874 13.5126 184.686 12.831C187.633 11.7222 190.608 11.6502 193.598 12.639C195.987 13.4262 197.257 15.0342 197.296 17.535C197.359 21.3654 197.339 25.1958 197.359 29.0262C197.359 29.1078 197.349 29.1846 197.344 29.2758H193.395V27.2358C192.842 27.5334 192.353 27.7782 191.883 28.047C189.237 29.5638 186.465 29.6694 183.625 28.743C182.224 28.287 181.376 27.303 181.241 25.8198C181.158 24.879 181.11 23.9286 181.163 22.9878C181.265 21.1878 182.336 20.0262 184.124 19.5894C186.058 19.119 188.03 19.167 189.998 19.1574C191.078 19.1526 192.159 19.1574 193.264 19.1574ZM193.283 21.8934C193.181 21.8838 193.099 21.8742 193.022 21.8742C191.471 21.879 189.92 21.8502 188.369 21.9126C187.691 21.9414 187.007 22.0998 186.353 22.2966C185.491 22.5558 185.069 23.199 185.098 24.0198C185.127 24.8262 185.621 25.4406 186.474 25.6662C187.982 26.0694 189.479 26.0598 190.962 25.5222C192.527 24.9558 193.414 23.5926 193.283 21.8934Z" fill="black"/>
<path d="M67.979 21.7614H55.1512C54.8798 22.8654 55.5728 24.3966 56.6584 25.131C58.5435 26.4078 61.4318 26.1582 63.0747 24.5982C63.2685 24.4158 63.569 24.2478 63.8258 24.2382C65.0858 24.1998 66.3458 24.2238 67.6494 24.2238C67.189 26.1486 66.2586 27.675 64.3104 28.4094C61.1362 29.6046 57.9571 29.6286 54.7635 28.467C52.9607 27.8094 51.9043 26.4846 51.3809 24.7182C50.6152 22.1166 50.5958 19.491 51.3034 16.8702C51.9915 14.3166 53.678 12.8238 56.2852 12.3294C58.3739 11.931 60.4674 11.8782 62.5561 12.3102C65.6237 12.9486 67.2424 14.5902 67.819 17.6526C68.071 18.9918 68.1534 20.3454 67.9741 21.7614H67.979ZM64.0778 18.9918C63.8597 17.9358 63.4817 16.995 62.6385 16.3038C61.2477 15.1614 58.5193 15.0078 56.9055 15.9966C56.5227 16.2318 56.1689 16.539 55.8733 16.875C55.3499 17.4702 55.1076 18.1806 55.1318 18.9918H64.073H64.0778Z" fill="black"/>
<path d="M105.045 21.7474H91.9457C91.718 22.9474 92.4449 24.445 93.5934 25.1842C95.4786 26.4034 98.2845 26.1346 99.908 24.6082C100.097 24.4306 100.378 24.2482 100.62 24.2434C101.895 24.205 103.169 24.2242 104.488 24.2242C104.124 25.7266 103.543 27.037 102.128 27.8578C100.78 28.6402 99.3507 29.0626 97.7902 29.1154C96.1667 29.1682 94.5481 29.2162 92.9392 28.909C90.2351 28.3954 88.5341 26.7298 88.0494 24.0274C87.6327 21.709 87.6375 19.3714 88.0785 17.0626C88.568 14.5042 90.2544 13.045 92.7405 12.4258C95.1539 11.8258 97.577 11.8546 99.9855 12.4402C102.661 13.093 104.299 14.9842 104.614 17.725C104.749 18.8962 104.88 20.0674 105.011 21.2386C105.026 21.3874 105.026 21.5362 105.04 21.7474H105.045ZM100.809 18.9874C100.809 17.7538 100.291 16.7938 99.2877 16.165C97.5624 15.085 95.7161 15.0418 93.9036 15.9058C92.6533 16.5058 92.1347 17.677 91.8634 18.9874H100.805H100.809Z" fill="black"/>
<path d="M153.965 17.0397C152.715 17.0397 151.499 17.0541 150.282 17.0253C150.098 17.0253 149.885 16.8429 149.749 16.6845C149.153 15.9885 148.407 15.5469 147.491 15.5373C146.274 15.5229 145.058 15.5757 143.842 15.6429C143.294 15.6717 142.679 16.3533 142.606 16.8861C142.543 17.3277 142.897 17.7789 143.488 17.9325C144.224 18.1197 144.971 18.2685 145.712 18.4413C147.568 18.8781 149.434 19.2765 151.276 19.7757C153.316 20.3277 154.285 21.6141 154.329 23.7069C154.338 24.2637 154.295 24.8349 154.193 25.3869C153.917 26.8269 153.078 27.8397 151.712 28.4109C149.841 29.1933 147.874 29.3181 145.882 29.2749C144.656 29.2509 143.459 29.0541 142.291 28.6701C140.255 28.0029 139.097 26.5821 138.68 24.5325C138.661 24.4413 138.666 24.3405 138.656 24.2349C139.911 24.2349 141.157 24.2205 142.402 24.2493C142.586 24.2493 142.795 24.4461 142.935 24.5997C143.657 25.4109 144.554 25.8429 145.644 25.7901C146.861 25.7325 148.077 25.6413 149.289 25.5261C149.802 25.4781 150.331 24.8973 150.379 24.4269C150.423 23.9901 149.996 23.3613 149.473 23.2221C148.004 22.8429 146.522 22.4925 145.043 22.1421C143.968 21.8877 142.872 21.7005 141.811 21.3933C139.693 20.7789 138.603 19.2333 138.685 17.0493C138.705 16.5597 138.758 16.0605 138.86 15.5805C139.209 13.9149 140.299 12.9309 141.918 12.5133C144.627 11.8125 147.355 11.7933 150.054 12.5133C152.192 13.0845 153.558 14.4381 153.936 16.6557C153.946 16.7229 153.956 16.7901 153.96 16.8621C153.96 16.9005 153.96 16.9437 153.96 17.0349L153.965 17.0397Z" fill="black"/>
<path d="M111.413 28.8267H107.43V12.4491H111.418V14.3739C111.583 14.2251 111.689 14.1291 111.796 14.0283C112.969 12.9003 114.321 12.1467 116.003 12.1563C117.166 12.1659 118.334 12.1467 119.482 12.2859C121.716 12.5547 123.262 14.0763 123.553 16.3275C123.737 17.7675 123.766 19.2267 123.815 20.6811C123.892 23.2347 123.931 25.7883 123.989 28.3419C123.989 28.4907 123.989 28.6395 123.989 28.8171H119.884C119.865 28.5147 119.831 28.2075 119.831 27.9003C119.826 25.3851 119.86 22.8747 119.807 20.3595C119.787 19.4619 119.589 18.5691 119.438 17.6811C119.351 17.1675 119.007 16.8027 118.59 16.5051C117.224 15.5259 115.721 15.5259 114.18 15.9291C112.513 16.3659 111.656 17.3115 111.588 19.0251C111.471 21.8763 111.462 24.7323 111.408 27.5883C111.399 27.9819 111.408 28.3803 111.408 28.8315L111.413 28.8267Z" fill="black"/>
<path d="M78.0494 24.9508C78.5001 23.746 78.9072 22.6756 79.3094 21.5956C80.3611 18.7492 81.4078 15.9028 82.4594 13.0612C82.6775 12.4708 82.8665 12.3508 83.5159 12.3556C84.5142 12.3652 85.5125 12.3652 86.5108 12.37C86.6562 12.37 86.8064 12.37 87.0148 12.37C86.6417 13.3492 86.2976 14.2708 85.9438 15.1828C84.2719 19.4932 82.6 23.8036 80.9329 28.114C80.6567 28.8244 80.5404 28.9156 79.7795 28.9108C78.6843 28.9108 77.5891 28.9108 76.4938 28.906C75.7184 28.906 75.4664 28.7284 75.1902 28.018C73.2324 22.9732 71.2697 17.9236 69.3118 12.8788C69.1471 12.4516 69.2004 12.37 69.6559 12.37C70.6251 12.3748 71.5992 12.3892 72.5684 12.4036C73.276 12.4132 73.4262 12.514 73.6685 13.1668C74.284 14.8084 74.8946 16.4548 75.5101 18.0964C76.3484 20.3428 77.182 22.594 78.064 24.9508H78.0494Z" fill="black"/>
<path d="M128.246 16.0443H125.93V12.3531C126.109 12.3531 126.269 12.3531 126.429 12.3531C127.747 12.3387 128.236 11.8395 128.236 10.5195C128.236 9.90514 128.236 9.29074 128.236 8.65234H132.312V12.3291H136.843C136.843 13.5147 136.843 14.6523 136.843 15.7899C136.843 16.0779 136.645 16.0299 136.465 16.0299C135.244 16.0299 134.028 16.0299 132.806 16.0299C132.656 16.0299 132.511 16.0299 132.336 16.0299C132.327 16.1787 132.317 16.2843 132.317 16.3899C132.317 18.4923 132.317 20.5899 132.317 22.6923C132.317 22.9083 132.336 23.1291 132.375 23.3451C132.574 24.4779 133.272 25.1211 134.43 25.1883C135.176 25.2315 135.927 25.2171 136.674 25.2267C136.824 25.2267 136.969 25.2267 137.134 25.2267C137.149 25.3659 137.173 25.4619 137.173 25.5531C137.173 26.5419 137.173 27.5307 137.173 28.5195C137.173 28.7019 137.192 28.8843 136.916 28.8843C135.312 28.8891 133.693 29.0427 132.113 28.6443C131.479 28.4859 130.849 28.2411 130.277 27.9195C128.954 27.1755 128.367 25.9371 128.324 24.4923C128.246 21.8571 128.256 19.2219 128.232 16.5867C128.232 16.4235 128.232 16.2603 128.232 16.0395L128.246 16.0443Z" fill="black"/>
<path d="M158.176 16.0392H155.859V12.3528C156.14 12.3528 156.402 12.3576 156.659 12.3528C157.57 12.3288 158.147 11.7576 158.166 10.8456C158.181 10.1304 158.181 9.42001 158.186 8.70481C158.186 8.69521 158.2 8.68561 158.249 8.63281H162.232V12.324H166.749C166.758 12.5016 166.773 12.6456 166.773 12.7896C166.773 13.668 166.773 14.5464 166.773 15.4248C166.773 16.1112 166.826 16.0296 166.182 16.0296C164.893 16.0296 163.604 16.0296 162.285 16.0296C162.276 16.1496 162.256 16.2504 162.256 16.356C162.256 18.4824 162.256 20.6136 162.256 22.74C162.256 22.9464 162.281 23.1528 162.314 23.3544C162.513 24.4824 163.216 25.1256 164.379 25.1928C165.125 25.236 165.876 25.2216 166.623 25.2312C166.773 25.2312 166.918 25.2312 167.112 25.2312C167.112 26.172 167.112 27.0648 167.112 27.9528C167.112 28.5832 166.787 28.9 166.138 28.9032C164.767 28.9032 163.385 29.004 162.043 28.6488C161.408 28.4808 160.778 28.2408 160.206 27.924C158.883 27.18 158.302 25.9368 158.258 24.492C158.181 21.8568 158.19 19.2216 158.166 16.5864C158.166 16.4232 158.166 16.2648 158.166 16.044L158.176 16.0392Z" fill="black"/>
<path d="M200.874 16.0491H198.562V12.3483C198.824 12.3483 199.086 12.3531 199.343 12.3483C200.278 12.3243 200.855 11.7531 200.864 10.8123C200.874 10.1019 200.864 9.38674 200.864 8.65234H204.935V12.3195H209.471V15.1995C209.471 15.7499 209.197 16.0251 208.647 16.0251C207.431 16.0251 206.215 16.0251 204.974 16.0251C204.964 16.1643 204.95 16.2699 204.95 16.3755C204.95 18.4635 204.95 20.5467 204.95 22.6347C204.95 22.9323 204.979 23.2395 205.042 23.5323C205.25 24.5019 205.987 25.1211 207.058 25.1787C207.848 25.2219 208.638 25.2171 209.428 25.2123C209.709 25.2123 209.82 25.2795 209.815 25.5771C209.801 26.5515 209.81 27.5259 209.81 28.5003C209.81 28.6779 209.844 28.8699 209.563 28.8747C207.959 28.8843 206.341 29.0331 204.761 28.6347C204.126 28.4763 203.491 28.2315 202.924 27.9147C201.596 27.1755 201.005 25.9371 200.966 24.4923C200.889 21.8571 200.898 19.2219 200.874 16.5867C200.874 16.4235 200.874 16.2603 200.874 16.0347V16.0491Z" fill="black"/>
<path d="M179.848 12.0724V15.7156C179.184 15.7156 178.535 15.706 177.89 15.7156C177.353 15.7252 176.805 15.7252 176.277 15.7924C174.673 16.0036 173.65 17.0116 173.529 18.6196C173.408 20.2468 173.384 21.8836 173.359 23.5156C173.33 25.2724 173.354 27.0292 173.354 28.8196H169.352V12.4468H173.34V14.2852C173.379 14.3044 173.417 14.3284 173.456 14.3476C175.08 12.1684 177.357 11.8852 179.853 12.0772L179.848 12.0724Z" fill="black"/>
</g>
<defs>
<clipPath id="clip0_2625_2506">
<rect width="210" height="40" fill="white"/>
</clipPath>
</defs>
</svg>
